<svg viewBox="0 0 1024 1024" xmlns="http://www.w3.org/2000/svg" id="图层_1"><defs><style>.cls-1{fill:#93ede7;}.cls-2{fill:#c1f8f4;}.cls-3{fill:#f4dd45;}.cls-4{fill:#4278c3;}.cls-5{fill:#5ea5ec;}.cls-6{fill:#70c6da;}.cls-7{fill:#fff;}</style></defs><circle r="397.02" cy="514.98" cx="512" class="cls-1"></circle><path d="M512,118a395.27,395.27,0,0,0-184.08,45.19A379.85,379.85,0,0,0,319,245c0,209.15,169.55,378.71,378.7,378.71a376.92,376.92,0,0,0,208.61-62.62A401.05,401.05,0,0,0,909,515C909,295.71,731.27,118,512,118Z" class="cls-2"></path><path d="M624,311.17,513.46,541.59c-4.12,8.59,1,19.38,9.17,19.38H662.79c7.44,0,12.57,9,9.92,17.47L634,701.59c-4.36,13.87,10.88,24.22,18.33,12.45l141.27-222.9c5.38-8.47.4-20.74-8.41-20.74h-154c-6.73,0-11.76-7.49-10.4-15.48l22.77-134.67C646,306,630.07,298.56,624,311.17Z" class="cls-3"></path><path d="M776.43,365.53H642.67a73.91,73.91,0,0,1-22.18-144.42,94.66,94.66,0,0,1,40.35-101.66A135.48,135.48,0,0,0,582.74,190a94.65,94.65,0,0,0-149,97.92,73.91,73.91,0,0,0,22.18,144.42H786.22c1,0,1.93-.05,2.87-.14s1.9.14,2.87.14a73.9,73.9,0,0,0,73.56-66.8H776.43Z" class="cls-4"></path><path d="M831.06,295.79A135.07,135.07,0,0,0,660.84,119.45a94.66,94.66,0,0,0-40.35,101.66,73.91,73.91,0,0,0,22.18,144.42H865.52q.35-3.51.35-7.11A73.77,73.77,0,0,0,831.06,295.79Z" class="cls-5"></path><path d="M395.5,780.51H255.35c-8.2,0-13.3-10.78-9.18-19.37l44.51-92.76H179.82a73.63,73.63,0,0,1-38.42-10.76A398.18,398.18,0,0,0,377,888.45L405.42,798C408.07,789.55,402.94,780.51,395.5,780.51Z" class="cls-1"></path><path d="M376.31,539.79c2.42-14.3-13.53-21.69-19.58-9.08l-28.78,60a73.49,73.49,0,0,0,37.91,10.87Z" class="cls-3"></path><path d="M517.94,689.94h-154c-6.72,0-11.75-7.48-10.4-15.48l1-6.08H290.68l-44.51,92.76c-4.12,8.59,1,19.37,9.18,19.37H395.5c7.44,0,12.57,9,9.92,17.48L377,888.45q15,5.41,30.56,9.64l118.78-187.4C531.73,702.21,526.75,689.94,517.94,689.94Z" class="cls-3"></path><path d="M266.69,668.38h24L328,590.69a73.92,73.92,0,0,1,16.43-133.54A94.58,94.58,0,0,1,384.73,355.5,135.49,135.49,0,0,0,306.62,426a94.67,94.67,0,0,0-149,97.93A74.12,74.12,0,0,0,117,555.5,395,395,0,0,0,141.4,657.62a73.63,73.63,0,0,0,38.42,10.76Z" class="cls-5"></path><path d="M431.84,668.38h78.27a27.44,27.44,0,0,0,2.87-.15c.95,0,1.9.15,2.87.15a73.91,73.91,0,0,0,73.56-66.81H365.86l-11.3,66.82Z" class="cls-5"></path><path d="M313.58,668.38h41l11.3-66.82A73.49,73.49,0,0,1,328,590.69l-37.27,77.69Z" class="cls-5"></path><path d="M554.94,531.83A135.06,135.06,0,0,0,384.73,355.5a94.58,94.58,0,0,0-40.35,101.65,73.91,73.91,0,0,0,22.18,144.42H589.41c.22-2.34.34-4.7.34-7.1A73.8,73.8,0,0,0,554.94,531.83Z" class="cls-6"></path><path d="M555.09,447H298.28a15.88,15.88,0,0,1,0-31.76H555.09a80.6,80.6,0,1,0,0-161.2h-65a15.89,15.89,0,0,1,0-31.77h65a112.37,112.37,0,0,1,0,224.73Z" class="cls-7"></path><path d="M694,747.36H276.41a15.88,15.88,0,0,1,0-31.76H694a80.6,80.6,0,0,0,0-161.2H629a15.88,15.88,0,1,1,0-31.76h65a112.36,112.36,0,0,1,0,224.72Z" class="cls-7"></path><path d="M386.65,527.82H188.05a15.88,15.88,0,0,1,0-31.76h198.6a15.88,15.88,0,0,1,0,31.76Z" class="cls-7"></path></svg>